<mxfile host="Electron" modified="2024-01-12T17:27:18.448Z" agent="Mozilla/5.0 (Windows NT 10.0; Win64; x64) AppleWebKit/537.36 (KHTML, like Gecko) draw.io/21.2.8 Chrome/112.0.5615.165 Electron/24.2.0 Safari/537.36" etag="LjfUQYnQckr9EZKhQ42a" version="21.2.8" type="device">
  <diagram name="Page-1" id="jWC5txjRPH2eFqfEVl3q">
    <mxGraphModel dx="2880" dy="1720" grid="1" gridSize="10" guides="1" tooltips="1" connect="1" arrows="1" fold="1" page="1" pageScale="1" pageWidth="2300" pageHeight="1500" math="0" shadow="0">
      <root>
        <mxCell id="0" />
        <mxCell id="1" parent="0" />
        <mxCell id="SM4OgzP2sG6H6Vg3T14b-29" style="edgeStyle=orthogonalEdgeStyle;rounded=0;orthogonalLoop=1;jettySize=auto;html=1;exitX=0.954;exitY=0.965;exitDx=0;exitDy=0;exitPerimeter=0;fillColor=#fff2cc;gradientColor=#ffd966;strokeColor=#d6b656;" edge="1" parent="1" source="SM4OgzP2sG6H6Vg3T14b-1" target="SM4OgzP2sG6H6Vg3T14b-27">
          <mxGeometry relative="1" as="geometry">
            <mxPoint x="170" y="210" as="sourcePoint" />
            <Array as="points">
              <mxPoint x="165" y="230" />
              <mxPoint x="200" y="230" />
              <mxPoint x="200" y="310" />
              <mxPoint x="430" y="310" />
            </Array>
          </mxGeometry>
        </mxCell>
        <mxCell id="SM4OgzP2sG6H6Vg3T14b-30" style="edgeStyle=orthogonalEdgeStyle;rounded=0;orthogonalLoop=1;jettySize=auto;html=1;entryX=0.131;entryY=0.325;entryDx=0;entryDy=0;entryPerimeter=0;" edge="1" parent="1" source="SM4OgzP2sG6H6Vg3T14b-1" target="SM4OgzP2sG6H6Vg3T14b-28">
          <mxGeometry relative="1" as="geometry">
            <Array as="points">
              <mxPoint x="789" y="190" />
              <mxPoint x="789" y="249" />
            </Array>
          </mxGeometry>
        </mxCell>
        <mxCell id="SM4OgzP2sG6H6Vg3T14b-39" style="edgeStyle=orthogonalEdgeStyle;rounded=0;orthogonalLoop=1;jettySize=auto;html=1;" edge="1" parent="1" source="SM4OgzP2sG6H6Vg3T14b-1" target="SM4OgzP2sG6H6Vg3T14b-38">
          <mxGeometry relative="1" as="geometry">
            <Array as="points">
              <mxPoint x="160" y="470" />
            </Array>
          </mxGeometry>
        </mxCell>
        <mxCell id="SM4OgzP2sG6H6Vg3T14b-52" style="edgeStyle=orthogonalEdgeStyle;rounded=0;orthogonalLoop=1;jettySize=auto;html=1;" edge="1" parent="1" source="SM4OgzP2sG6H6Vg3T14b-1" target="SM4OgzP2sG6H6Vg3T14b-50">
          <mxGeometry relative="1" as="geometry">
            <mxPoint x="1190" y="560" as="targetPoint" />
            <Array as="points">
              <mxPoint x="10" y="180" />
              <mxPoint x="10" y="730" />
              <mxPoint x="1150" y="730" />
            </Array>
          </mxGeometry>
        </mxCell>
        <mxCell id="SM4OgzP2sG6H6Vg3T14b-56" style="edgeStyle=orthogonalEdgeStyle;rounded=0;orthogonalLoop=1;jettySize=auto;html=1;entryX=0.607;entryY=0.064;entryDx=0;entryDy=0;entryPerimeter=0;" edge="1" parent="1" source="SM4OgzP2sG6H6Vg3T14b-1" target="SM4OgzP2sG6H6Vg3T14b-54">
          <mxGeometry relative="1" as="geometry" />
        </mxCell>
        <mxCell id="SM4OgzP2sG6H6Vg3T14b-1" value="Funcionario" style="whiteSpace=wrap;html=1;align=center;" vertex="1" parent="1">
          <mxGeometry x="70" y="160" width="100" height="40" as="geometry" />
        </mxCell>
        <mxCell id="SM4OgzP2sG6H6Vg3T14b-34" style="edgeStyle=orthogonalEdgeStyle;rounded=0;orthogonalLoop=1;jettySize=auto;html=1;entryX=0.865;entryY=0.688;entryDx=0;entryDy=0;entryPerimeter=0;fillColor=#e1d5e7;strokeColor=#9673a6;" edge="1" parent="1" source="SM4OgzP2sG6H6Vg3T14b-44" target="SM4OgzP2sG6H6Vg3T14b-27">
          <mxGeometry relative="1" as="geometry">
            <Array as="points">
              <mxPoint x="990" y="360" />
              <mxPoint x="486" y="360" />
              <mxPoint x="486" y="371" />
            </Array>
          </mxGeometry>
        </mxCell>
        <mxCell id="SM4OgzP2sG6H6Vg3T14b-48" style="edgeStyle=orthogonalEdgeStyle;rounded=0;orthogonalLoop=1;jettySize=auto;html=1;" edge="1" parent="1" source="SM4OgzP2sG6H6Vg3T14b-2" target="SM4OgzP2sG6H6Vg3T14b-44">
          <mxGeometry relative="1" as="geometry" />
        </mxCell>
        <mxCell id="SM4OgzP2sG6H6Vg3T14b-49" style="edgeStyle=orthogonalEdgeStyle;rounded=0;orthogonalLoop=1;jettySize=auto;html=1;" edge="1" parent="1" target="SM4OgzP2sG6H6Vg3T14b-45">
          <mxGeometry relative="1" as="geometry">
            <mxPoint x="1010" y="80.99999999999989" as="sourcePoint" />
            <mxPoint x="1120" y="146" as="targetPoint" />
            <Array as="points">
              <mxPoint x="1010" y="111" />
              <mxPoint x="1120" y="111" />
            </Array>
          </mxGeometry>
        </mxCell>
        <mxCell id="SM4OgzP2sG6H6Vg3T14b-2" value="Utente" style="whiteSpace=wrap;html=1;align=center;" vertex="1" parent="1">
          <mxGeometry x="960" y="30" width="100" height="40" as="geometry" />
        </mxCell>
        <mxCell id="SM4OgzP2sG6H6Vg3T14b-32" style="edgeStyle=orthogonalEdgeStyle;rounded=0;orthogonalLoop=1;jettySize=auto;html=1;entryX=0.5;entryY=1;entryDx=0;entryDy=0;" edge="1" parent="1" source="SM4OgzP2sG6H6Vg3T14b-3" target="SM4OgzP2sG6H6Vg3T14b-28">
          <mxGeometry relative="1" as="geometry" />
        </mxCell>
        <mxCell id="SM4OgzP2sG6H6Vg3T14b-33" style="edgeStyle=orthogonalEdgeStyle;rounded=0;orthogonalLoop=1;jettySize=auto;html=1;entryX=0.5;entryY=1;entryDx=0;entryDy=0;" edge="1" parent="1" source="SM4OgzP2sG6H6Vg3T14b-3" target="SM4OgzP2sG6H6Vg3T14b-27">
          <mxGeometry relative="1" as="geometry">
            <Array as="points">
              <mxPoint x="320" y="460" />
              <mxPoint x="430" y="460" />
            </Array>
          </mxGeometry>
        </mxCell>
        <mxCell id="SM4OgzP2sG6H6Vg3T14b-3" value="Livro" style="whiteSpace=wrap;html=1;align=center;" vertex="1" parent="1">
          <mxGeometry x="280" y="500" width="80" height="40" as="geometry" />
        </mxCell>
        <mxCell id="SM4OgzP2sG6H6Vg3T14b-6" style="edgeStyle=orthogonalEdgeStyle;rounded=0;orthogonalLoop=1;jettySize=auto;html=1;entryX=1;entryY=0.75;entryDx=0;entryDy=0;" edge="1" parent="1" source="SM4OgzP2sG6H6Vg3T14b-4" target="SM4OgzP2sG6H6Vg3T14b-1">
          <mxGeometry relative="1" as="geometry">
            <Array as="points">
              <mxPoint x="250" y="200" />
              <mxPoint x="170" y="200" />
            </Array>
          </mxGeometry>
        </mxCell>
        <mxCell id="SM4OgzP2sG6H6Vg3T14b-7" style="edgeStyle=orthogonalEdgeStyle;rounded=0;orthogonalLoop=1;jettySize=auto;html=1;entryX=0.42;entryY=0;entryDx=0;entryDy=0;entryPerimeter=0;" edge="1" parent="1" source="SM4OgzP2sG6H6Vg3T14b-4" target="SM4OgzP2sG6H6Vg3T14b-3">
          <mxGeometry relative="1" as="geometry" />
        </mxCell>
        <mxCell id="SM4OgzP2sG6H6Vg3T14b-43" style="edgeStyle=orthogonalEdgeStyle;rounded=0;orthogonalLoop=1;jettySize=auto;html=1;entryX=0;entryY=0.5;entryDx=0;entryDy=0;fillColor=#a20025;strokeColor=#6F0000;" edge="1" parent="1" source="SM4OgzP2sG6H6Vg3T14b-4" target="SM4OgzP2sG6H6Vg3T14b-2">
          <mxGeometry relative="1" as="geometry">
            <Array as="points">
              <mxPoint x="340" y="360" />
              <mxPoint x="340" y="160" />
              <mxPoint x="890" y="160" />
              <mxPoint x="890" y="50" />
            </Array>
          </mxGeometry>
        </mxCell>
        <mxCell id="SM4OgzP2sG6H6Vg3T14b-4" value="solicita" style="shape=rhombus;perimeter=rhombusPerimeter;whiteSpace=wrap;html=1;align=center;" vertex="1" parent="1">
          <mxGeometry x="190" y="330" width="120" height="60" as="geometry" />
        </mxCell>
        <mxCell id="SM4OgzP2sG6H6Vg3T14b-42" style="edgeStyle=orthogonalEdgeStyle;rounded=0;orthogonalLoop=1;jettySize=auto;html=1;" edge="1" parent="1" source="SM4OgzP2sG6H6Vg3T14b-27" target="SM4OgzP2sG6H6Vg3T14b-37">
          <mxGeometry relative="1" as="geometry">
            <Array as="points">
              <mxPoint x="460" y="590" />
              <mxPoint x="460" y="590" />
            </Array>
          </mxGeometry>
        </mxCell>
        <mxCell id="SM4OgzP2sG6H6Vg3T14b-27" value="Devolve_casa" style="shape=rhombus;perimeter=rhombusPerimeter;whiteSpace=wrap;html=1;align=center;" vertex="1" parent="1">
          <mxGeometry x="370" y="330" width="120" height="60" as="geometry" />
        </mxCell>
        <mxCell id="SM4OgzP2sG6H6Vg3T14b-28" value="Renova" style="shape=rhombus;perimeter=rhombusPerimeter;whiteSpace=wrap;html=1;align=center;" vertex="1" parent="1">
          <mxGeometry x="780" y="230" width="120" height="60" as="geometry" />
        </mxCell>
        <mxCell id="SM4OgzP2sG6H6Vg3T14b-37" value="multa" style="whiteSpace=wrap;html=1;align=center;" vertex="1" parent="1">
          <mxGeometry x="390" y="640" width="100" height="40" as="geometry" />
        </mxCell>
        <mxCell id="SM4OgzP2sG6H6Vg3T14b-41" style="edgeStyle=orthogonalEdgeStyle;rounded=0;orthogonalLoop=1;jettySize=auto;html=1;entryX=0;entryY=0.75;entryDx=0;entryDy=0;" edge="1" parent="1" source="SM4OgzP2sG6H6Vg3T14b-38" target="SM4OgzP2sG6H6Vg3T14b-37">
          <mxGeometry relative="1" as="geometry">
            <Array as="points">
              <mxPoint x="90" y="670" />
            </Array>
          </mxGeometry>
        </mxCell>
        <mxCell id="SM4OgzP2sG6H6Vg3T14b-38" value="pagar" style="shape=rhombus;perimeter=rhombusPerimeter;whiteSpace=wrap;html=1;align=center;" vertex="1" parent="1">
          <mxGeometry x="30" y="440" width="120" height="60" as="geometry" />
        </mxCell>
        <mxCell id="SM4OgzP2sG6H6Vg3T14b-46" style="edgeStyle=orthogonalEdgeStyle;rounded=0;orthogonalLoop=1;jettySize=auto;html=1;entryX=1;entryY=0;entryDx=0;entryDy=0;" edge="1" parent="1" source="SM4OgzP2sG6H6Vg3T14b-44" target="SM4OgzP2sG6H6Vg3T14b-28">
          <mxGeometry relative="1" as="geometry">
            <mxPoint x="859" y="250" as="targetPoint" />
          </mxGeometry>
        </mxCell>
        <mxCell id="SM4OgzP2sG6H6Vg3T14b-44" value="Interno" style="whiteSpace=wrap;html=1;align=center;" vertex="1" parent="1">
          <mxGeometry x="930" y="150" width="100" height="40" as="geometry" />
        </mxCell>
        <mxCell id="SM4OgzP2sG6H6Vg3T14b-45" value="Externo" style="whiteSpace=wrap;html=1;align=center;" vertex="1" parent="1">
          <mxGeometry x="1070" y="150" width="100" height="40" as="geometry" />
        </mxCell>
        <mxCell id="SM4OgzP2sG6H6Vg3T14b-51" style="edgeStyle=orthogonalEdgeStyle;rounded=0;orthogonalLoop=1;jettySize=auto;html=1;" edge="1" parent="1" source="SM4OgzP2sG6H6Vg3T14b-50" target="SM4OgzP2sG6H6Vg3T14b-45">
          <mxGeometry relative="1" as="geometry">
            <Array as="points">
              <mxPoint x="1230" y="470" />
              <mxPoint x="1230" y="180" />
              <mxPoint x="1200" y="180" />
              <mxPoint x="1200" y="170" />
            </Array>
          </mxGeometry>
        </mxCell>
        <mxCell id="SM4OgzP2sG6H6Vg3T14b-53" style="edgeStyle=orthogonalEdgeStyle;rounded=0;orthogonalLoop=1;jettySize=auto;html=1;entryX=1;entryY=0.25;entryDx=0;entryDy=0;fillColor=#e6d0de;gradientColor=#d5739d;strokeColor=#996185;" edge="1" parent="1" source="SM4OgzP2sG6H6Vg3T14b-50" target="SM4OgzP2sG6H6Vg3T14b-3">
          <mxGeometry relative="1" as="geometry">
            <Array as="points">
              <mxPoint x="1070" y="510" />
            </Array>
          </mxGeometry>
        </mxCell>
        <mxCell id="SM4OgzP2sG6H6Vg3T14b-50" value="Devolve_Biblioteca" style="shape=rhombus;perimeter=rhombusPerimeter;whiteSpace=wrap;html=1;align=center;" vertex="1" parent="1">
          <mxGeometry x="1070" y="440" width="140" height="60" as="geometry" />
        </mxCell>
        <mxCell id="SM4OgzP2sG6H6Vg3T14b-59" style="edgeStyle=orthogonalEdgeStyle;rounded=0;orthogonalLoop=1;jettySize=auto;html=1;entryX=0;entryY=0.5;entryDx=0;entryDy=0;" edge="1" parent="1" source="SM4OgzP2sG6H6Vg3T14b-54" target="SM4OgzP2sG6H6Vg3T14b-58">
          <mxGeometry relative="1" as="geometry" />
        </mxCell>
        <mxCell id="SM4OgzP2sG6H6Vg3T14b-62" style="edgeStyle=orthogonalEdgeStyle;rounded=0;orthogonalLoop=1;jettySize=auto;html=1;entryX=0;entryY=0.5;entryDx=0;entryDy=0;fillColor=#60a917;strokeColor=#2D7600;" edge="1" parent="1" source="SM4OgzP2sG6H6Vg3T14b-54" target="SM4OgzP2sG6H6Vg3T14b-61">
          <mxGeometry relative="1" as="geometry">
            <Array as="points">
              <mxPoint x="50" y="60" />
            </Array>
          </mxGeometry>
        </mxCell>
        <mxCell id="SM4OgzP2sG6H6Vg3T14b-54" value="Admin" style="whiteSpace=wrap;html=1;align=center;" vertex="1" parent="1">
          <mxGeometry x="30" y="270" width="50" height="40" as="geometry" />
        </mxCell>
        <mxCell id="SM4OgzP2sG6H6Vg3T14b-57" style="edgeStyle=orthogonalEdgeStyle;rounded=0;orthogonalLoop=1;jettySize=auto;html=1;" edge="1" parent="1" source="SM4OgzP2sG6H6Vg3T14b-55">
          <mxGeometry relative="1" as="geometry">
            <mxPoint x="120" y="200" as="targetPoint" />
            <Array as="points">
              <mxPoint x="140" y="235" />
              <mxPoint x="121" y="235" />
              <mxPoint x="121" y="200" />
            </Array>
          </mxGeometry>
        </mxCell>
        <mxCell id="SM4OgzP2sG6H6Vg3T14b-55" value="Atendent" style="whiteSpace=wrap;html=1;align=center;" vertex="1" parent="1">
          <mxGeometry x="100" y="270" width="50" height="40" as="geometry" />
        </mxCell>
        <mxCell id="SM4OgzP2sG6H6Vg3T14b-60" style="edgeStyle=orthogonalEdgeStyle;rounded=0;orthogonalLoop=1;jettySize=auto;html=1;entryX=0.5;entryY=1;entryDx=0;entryDy=0;" edge="1" parent="1" source="SM4OgzP2sG6H6Vg3T14b-58" target="SM4OgzP2sG6H6Vg3T14b-55">
          <mxGeometry relative="1" as="geometry">
            <Array as="points">
              <mxPoint x="120" y="360" />
              <mxPoint x="120" y="310" />
            </Array>
          </mxGeometry>
        </mxCell>
        <mxCell id="SM4OgzP2sG6H6Vg3T14b-58" value="activa" style="shape=rhombus;perimeter=rhombusPerimeter;whiteSpace=wrap;html=1;align=center;" vertex="1" parent="1">
          <mxGeometry x="60" y="330" width="55" height="60" as="geometry" />
        </mxCell>
        <mxCell id="SM4OgzP2sG6H6Vg3T14b-63" style="edgeStyle=orthogonalEdgeStyle;rounded=0;orthogonalLoop=1;jettySize=auto;html=1;entryX=0.142;entryY=-0.027;entryDx=0;entryDy=0;entryPerimeter=0;fillColor=#008a00;strokeColor=#005700;" edge="1" parent="1" source="SM4OgzP2sG6H6Vg3T14b-61" target="SM4OgzP2sG6H6Vg3T14b-44">
          <mxGeometry relative="1" as="geometry" />
        </mxCell>
        <mxCell id="SM4OgzP2sG6H6Vg3T14b-61" value="activa" style="shape=rhombus;perimeter=rhombusPerimeter;whiteSpace=wrap;html=1;align=center;" vertex="1" parent="1">
          <mxGeometry x="120" y="30" width="55" height="60" as="geometry" />
        </mxCell>
      </root>
    </mxGraphModel>
  </diagram>
</mxfile>
